<?xml version="1.0" encoding="iso-8859-1"?>
<!-- Uploaded to: SVG Repo, www.svgrepo.com, Generator: SVG Repo Mixer Tools -->
<svg fill="#2667ff" height="800px" width="800px" version="1.1" id="Layer_1" xmlns="http://www.w3.org/2000/svg" xmlns:xlink="http://www.w3.org/1999/xlink" 
	 viewBox="0 0 512 512" xml:space="preserve">
<g>
	<g>
		<g>
			<path d="M83.277,74.024H9.253C4.143,74.024,0,78.167,0,83.277v345.446c0,5.11,4.143,9.253,9.253,9.253h74.024
				c5.11,0,9.253-4.143,9.253-9.253s-4.143-9.253-9.253-9.253H18.506V92.53h55.518v299.592c0,5.11,4.143,9.253,9.253,9.253
				c5.11,0,9.253-4.143,9.253-9.253V83.277C92.53,78.167,88.387,74.024,83.277,74.024z"/>
			<path d="M305.349,74.024H194.313c-5.11,0-9.253,4.143-9.253,9.253v345.446c0,5.11,4.143,9.253,9.253,9.253h111.036
				c5.11,0,9.253-4.143,9.253-9.253s-4.143-9.253-9.253-9.253H203.566V92.53h92.53v299.592c0,5.11,4.143,9.253,9.253,9.253
				c5.11,0,9.253-4.143,9.253-9.253V83.277C314.602,78.167,310.46,74.024,305.349,74.024z"/>
			<path d="M379.373,74.024h-37.012c-5.11,0-9.253,4.143-9.253,9.253v345.446c0,5.11,4.143,9.253,9.253,9.253h37.012
				c5.11,0,9.253-4.143,9.253-9.253s-4.143-9.253-9.253-9.253h-27.759V92.53h18.506v299.181c0,5.11,4.143,9.253,9.253,9.253
				c5.11,0,9.253-4.143,9.253-9.253V83.277C388.627,78.167,384.484,74.024,379.373,74.024z"/>
			<path d="M502.747,400.964c5.11,0,9.253-4.143,9.253-9.253V83.277c0-5.11-4.143-9.253-9.253-9.253h-49.349
				c-5.11,0-9.253,4.143-9.253,9.253v345.446c0,5.11,4.143,9.253,9.253,9.253h49.349c5.11,0,9.253-4.143,9.253-9.253
				s-4.143-9.253-9.253-9.253h-40.096V92.53h30.843v299.181C493.494,396.821,497.637,400.964,502.747,400.964z"/>
			<path d="M120.289,74.024c-5.11,0-9.253,4.143-9.253,9.253v345.446c0,5.11,4.143,9.253,9.253,9.253
				c5.11,0,9.253-4.143,9.253-9.253V83.277C129.542,78.167,125.399,74.024,120.289,74.024z"/>
			<path d="M157.301,74.024c-5.11,0-9.253,4.143-9.253,9.253v345.446c0,5.11,4.143,9.253,9.253,9.253s9.253-4.143,9.253-9.253
				V83.277C166.554,78.167,162.411,74.024,157.301,74.024z"/>
			<path d="M416.386,74.024c-5.11,0-9.253,4.143-9.253,9.253v345.446c0,5.11,4.143,9.253,9.253,9.253s9.253-4.143,9.253-9.253
				V83.277C425.639,78.167,421.496,74.024,416.386,74.024z"/>
		</g>
	</g>
</g>
</svg>